<svg width="520" height="320" viewBox="0 0 520 320" fill="none" xmlns="http://www.w3.org/2000/svg">
  <defs>
    <linearGradient id="bg" x1="52" y1="36" x2="470" y2="290" gradientUnits="userSpaceOnUse">
      <stop stop-color="#7C5CFF"/>
      <stop offset="1" stop-color="#B66DFF"/>
    </linearGradient>
    <linearGradient id="chair" x1="94" y1="106" x2="224" y2="214" gradientUnits="userSpaceOnUse">
      <stop stop-color="#FFD6F7"/>
      <stop offset="1" stop-color="#B992FF"/>
    </linearGradient>
    <linearGradient id="skin" x1="0" y1="0" x2="1" y2="1">
      <stop stop-color="#FFD1B3"/>
      <stop offset="1" stop-color="#F1A87D"/>
    </linearGradient>
  </defs>
  <rect x="18" y="22" width="484" height="274" rx="34" fill="url(#bg)"/>
  <circle cx="94" cy="72" r="18" fill="#FFD87E" fill-opacity=".28"/>
  <circle cx="430" cy="78" r="16" fill="#6EE7FF" fill-opacity=".32"/>
  <circle cx="450" cy="222" r="22" fill="#FFD0F2" fill-opacity=".28"/>
  <rect x="74" y="120" width="126" height="82" rx="34" fill="url(#chair)"/>
  <rect x="90" y="98" width="96" height="54" rx="26" fill="#F8E9FF"/>
  <ellipse cx="160" cy="228" rx="64" ry="18" fill="#4B2AB5" fill-opacity=".22"/>
  <circle cx="170" cy="90" r="24" fill="url(#skin)"/>
  <path d="M146 83C151 61 184 61 193 79C184 73 172 71 156 76L146 83Z" fill="#FFF6E8"/>
  <rect x="153" y="112" width="52" height="64" rx="18" fill="#FFF3EA"/>
  <rect x="157" y="120" width="44" height="46" rx="16" fill="#FFB86B"/>
  <path d="M177 121L194 141L167 140L177 121Z" fill="#FFF2E7"/>
  <path d="M165 176L199 176L208 231C190 239 175 239 156 232L165 176Z" fill="#2E215D"/>
  <path d="M166 176L146 216L161 223L181 189L166 176Z" fill="#FFD1B3"/>
  <path d="M198 176L216 222L232 215L213 172L198 176Z" fill="#FFD1B3"/>
  <path d="M149 217L162 224L146 247C141 254 130 257 121 252L149 217Z" fill="#3C2C7A"/>
  <path d="M216 221L231 214L251 240C256 246 255 256 249 261L216 221Z" fill="#1B1831"/>
  <rect x="112" y="128" width="16" height="54" rx="8" fill="#73F0D0"/>
  <rect x="114" y="136" width="12" height="24" rx="6" fill="#0F766E"/>
  <circle cx="114" cy="184" r="12" fill="#F472B6"/>
  <circle cx="236" cy="92" r="20" fill="#FFF" fill-opacity=".16"/>
  <circle cx="236" cy="92" r="10" fill="#FFF" fill-opacity=".8"/>
  <rect x="281" y="84" width="142" height="34" rx="17" fill="#FFF" fill-opacity=".18"/>
  <rect x="281" y="128" width="116" height="16" rx="8" fill="#FFF" fill-opacity=".16"/>
  <rect x="281" y="154" width="150" height="16" rx="8" fill="#FFF" fill-opacity=".12"/>
  <rect x="281" y="180" width="126" height="16" rx="8" fill="#FFF" fill-opacity=".12"/>
  <circle cx="74" cy="250" r="12" fill="#FFF" fill-opacity=".16"/>
  <circle cx="103" cy="258" r="8" fill="#FFF" fill-opacity=".16"/>
</svg>
